<?xml version="1.0" encoding="iso-8859-1"?>
<!-- Generator: Adobe Illustrator 18.0.0, SVG Export Plug-In . SVG Version: 6.00 Build 0)  -->
<!DOCTYPE svg PUBLIC "-//W3C//DTD SVG 1.1//EN" "http://www.w3.org/Graphics/SVG/1.1/DTD/svg11.dtd">

<svg version="1.1" id="Capa_1" xmlns="http://www.w3.org/2000/svg" xmlns:xlink="http://www.w3.org/1999/xlink"     x="0px" y="0px"
	 viewBox="0 0 223.453 223.453" style="enable-background:new 0 0 223.453 223.453;" fill="white" xml:space="preserve">
<path  d="M189.833,126.944c9.401-6.883,15.518-17.998,15.518-30.516c0-20.843-16.956-37.8-37.799-37.8h-29.059
	c5.089-6.439,8.128-14.567,8.128-23.392V22.5c0-12.406-10.093-22.5-22.5-22.5c-12.407,0-22.5,10.094-22.5,22.5v5.533h-45.94
	c-20.842,0-37.799,16.956-37.799,37.798c0,13.372,6.98,25.145,17.489,31.865c-8.524,6.937-13.979,17.507-13.979,29.327
	c0,20.843,16.957,37.799,37.8,37.799h35.712c-5.089,6.439-8.13,14.569-8.13,23.396v12.735c0,12.406,10.093,22.5,22.5,22.5
	s22.5-10.094,22.5-22.5v-5.533h36c20.842,0,37.799-16.956,37.799-37.798C205.571,145.006,199.359,133.814,189.833,126.944z
	 M167.773,180.42h-43.201c-4.3,0-7.799,3.498-7.799,7.798v12.735c0,4.136-3.364,7.5-7.5,7.5c-4.135,0-7.5-3.364-7.5-7.5v-12.735
	c0-12.57,10.228-22.798,22.799-22.798h43.201c4.3,0,7.799-3.498,7.799-7.798c0-4.301-3.499-7.8-7.799-7.8H59.191
	c-12.572,0-22.8-10.227-22.8-22.799c0-12.57,10.228-22.797,22.8-22.797h108.36c4.3,0,7.799-3.498,7.799-7.798
	c0-4.301-3.499-7.8-7.799-7.8H55.681c-12.571,0-22.799-10.228-22.799-22.798s10.228-22.798,22.799-22.798h53.143
	c4.3,0,7.798-3.498,7.798-7.797V22.5c0-4.136,3.365-7.5,7.5-7.5c4.136,0,7.5,3.364,7.5,7.5v12.736
	c0,12.57-10.227,22.797-22.798,22.797H55.681c-4.3,0-7.799,3.498-7.799,7.798s3.499,7.798,7.799,7.798h111.871
	c12.571,0,22.799,10.228,22.799,22.8c0,12.57-10.228,22.798-22.799,22.798H59.191c-4.301,0-7.8,3.498-7.8,7.797
	c0,4.3,3.499,7.799,7.8,7.799h108.581c12.571,0,22.799,10.228,22.799,22.8C190.571,170.192,180.344,180.42,167.773,180.42z"/>
	

<g>
</g>
<g>
</g>
<g>
</g>
<g>
</g>
<g>
</g>
<g>
</g>
<g>
</g>
<g>
</g>
<g>
</g>
<g>
</g>
<g>
</g>
<g>
</g>
<g>
</g>
<g>
</g>
<g>
</g>
</svg>
